<?xml version="1.0" encoding="UTF-8"?>
<svg version="1.1" xmlns="http://www.w3.org/2000/svg" width="1588" height="1191">
<path d="M0 0 C0.66 0 1.32 0 2 0 C2.33 6.27 2.66 12.54 3 19 C13.8013784 19.41226635 21.14775608 19.49678337 31.1171875 15.13671875 C36.598884 12.9752368 41.15312208 12.87977881 46.640625 15.0390625 C53.01301742 18.29808605 58.64409275 22.55650904 64.2734375 26.94921875 C69.21449628 30.66563115 72.134077 32.40901884 78.4375 32.3125 C79.52933594 32.30863281 80.62117187 32.30476563 81.74609375 32.30078125 C85.11619212 31.98925955 87.81405639 31.10463105 91 30 C98.25446399 28.88392862 103.43664711 29.98932413 109.50390625 34.0859375 C121.93679575 43.61976513 121.93679575 43.61976513 124 50 C122.83984375 49.6390625 121.6796875 49.278125 120.484375 48.90625 C107.57195858 45.00020589 98.58648182 42.34288886 86.1730957 48.9453125 C84.34331912 49.96197922 82.52945347 51.00796913 80.73510742 52.0859375 C74.70091781 55.60336601 69.99774172 57.0984553 63 56 C56.07896956 53.54880172 50.60477637 48.08584818 45.421875 43.05078125 C40.0063894 38.4650878 35.18285993 37.29438528 28.23828125 37.44140625 C22.36778407 38.45404931 17.85657184 41.70824521 13 45 C9.4378882 47.37295568 8.4184852 48 4 48 C4.06638672 48.69367676 4.13277344 49.38735352 4.20117188 50.10205078 C4.9453519 58.35728871 5.27246829 66.59116038 5.5 74.875 C5.76909169 84.61213266 6.22814264 94.28995943 7 104 C13.32993717 102.27018096 19.15264411 100.10729195 25.09375 97.3203125 C32.58391106 93.91752428 40.36499689 91.21388087 48.125 88.5 C53.35503446 86.65035366 58.37034227 84.54824127 63.39453125 82.203125 C66.05498119 80.97461138 68.73055611 79.80979498 71.4375 78.6875 C72.21996094 78.36136719 73.00242187 78.03523438 73.80859375 77.69921875 C76 77 76 77 80 77 C79.875 79.3125 79.875 79.3125 79 82 C78.05125 82.4125 77.1025 82.825 76.125 83.25 C72.76849286 85.129644 72.48489601 85.40816294 71.3125 88.8125 C70.8522368 90.53574734 70.41681974 92.26573217 70 94 C69.7215625 94.93199219 69.443125 95.86398437 69.15625 96.82421875 C63.24963803 119.05604993 67.59568496 142.56097895 72.875 164.4375 C73.22328857 165.89361694 73.22328857 165.89361694 73.57861328 167.37915039 C76.56058882 179.15364223 81.79584123 189.91482243 87.0625 200.8125 C87.57876953 201.89208984 88.09503906 202.97167969 88.62695312 204.08398438 C90.757604 208.51085263 92.88151261 212.89906392 95.37109375 217.13671875 C97 220 97 220 97 222 C92.18742302 220.50100061 87.66044666 218.88779493 83.125 216.6875 C64.12783517 207.8806911 43.28014292 203.80130769 22.4375 203.875 C21.33986328 203.87113281 20.24222656 203.86726562 19.11132812 203.86328125 C18.04205078 203.86457031 16.97277344 203.86585938 15.87109375 203.8671875 C14.91130615 203.86831543 13.95151855 203.86944336 12.96264648 203.87060547 C9.62367695 204.01643603 6.30856229 204.52734824 3 205 C3 223.48 3 241.96 3 261 C7.62 259.35 12.24 257.7 17 256 C22.08520742 254.29753343 27.17533329 252.61431311 32.2734375 250.95117188 C38.62038684 248.85899863 44.81622197 246.53046885 51 244 C62.93223259 239.3619811 75.01353269 235.12990821 87.0847168 230.87084961 C87.73844772 230.63993118 88.39217865 230.40901276 89.0657196 230.1710968 C90.94705783 229.50697024 92.82898935 228.84452513 94.7109375 228.18212891 C97.37294744 227.22537029 99.99892939 226.2172905 102.625 225.16796875 C105.77614003 224.07747006 107.7373897 223.89595558 111 224 C110.78923828 223.14849365 110.57847656 222.2969873 110.36132812 221.41967773 C107.91234958 210.5815071 107.44652863 200.1488124 107.5 189.0625 C107.50043304 188.16490967 107.50086609 187.26731934 107.50131226 186.3425293 C107.54888906 168.29947938 110.12323608 152.09604049 116 135 C112.37 135.33 108.74 135.66 105 136 C104.67 134.68 104.34 133.36 104 132 C116.03999523 126.99655288 128.07598637 122.04162042 140.39990234 117.77124023 C146.90567674 115.5162763 153.19394425 113.11687784 159.42578125 110.16796875 C170.81605351 105 170.81605351 105 175 105 C174.98912354 103.88359131 174.97824707 102.76718262 174.96704102 101.61694336 C174.86570015 85.77841338 175.31850952 69.96105727 175.79956055 54.13208008 C175.91573363 50.30819455 176.02644081 46.48417329 176.13556576 42.66008091 C176.22178408 39.65963758 176.31086189 36.65928407 176.40075874 33.6589489 C176.44266049 32.24988232 176.48373476 30.84079082 176.5238781 29.43167305 C176.78714196 20.2619326 177.27376527 11.14419486 178 2 C178.99 2 179.98 2 181 2 C181.33 7.94 181.66 13.88 182 20 C190.50656975 20.33689385 196.63795443 20.09248047 204.48828125 16.91796875 C208.50475664 15.45005006 211.82151031 14.95361003 216 16 C220.90143804 18.45432833 225.25895008 21.61037927 229.53515625 25.0234375 C234.99702217 29.26482308 238.57198602 30.78087489 245.5390625 30.3125 C248.37491372 29.95239191 251.18379849 29.48977418 254 29 C260.54248538 28.11182321 264.46696067 29.21104486 269.78125 33.140625 C273.41605906 36.18669738 276.97305034 39.33796826 280 43 C280 43.66 280 44.32 280 45 C278.06213915 44.52229477 276.12472326 44.04278429 274.1875 43.5625 C273.10855469 43.29566406 272.02960937 43.02882812 270.91796875 42.75390625 C268.9259157 42.23922588 266.95188476 41.65062825 265 41 C257.74729171 39.4342422 252.97846562 41.79087119 246.9375 45.5 C246.28950439 45.92845215 245.64150879 46.3569043 244.97387695 46.79833984 C239.96357606 49.97180272 235.91276178 50.90631992 230 50 C227.5390625 49.00390625 227.5390625 49.00390625 225.625 47.5625 C224.88378906 47.02496094 224.14257812 46.48742187 223.37890625 45.93359375 C221.6593629 44.53593536 219.98439621 43.08282477 218.33984375 41.59765625 C212.53568212 36.2070412 212.53568212 36.2070412 205.1875 33.9375 C199.09572904 34.47616142 194.05099822 38.04559896 189.00390625 41.25 C186 43 186 43 183 43 C183.03029297 43.65556885 183.06058594 44.3111377 183.09179688 44.98657227 C183.93015157 63.67382095 184.12277368 82.29873461 184 101 C185.14819214 100.51188843 185.14819214 100.51188843 186.31958008 100.01391602 C192.38675899 97.45645682 198.45254909 95.04979423 204.6875 92.9375 C209.84159956 91.15561843 214.85961803 89.28122596 219.80859375 86.98046875 C223.51532117 85.32202208 227.32632508 83.93482683 231.12109375 82.4921875 C235.89167231 80.6684046 240.63289231 78.77132259 245.375 76.875 C246.21909424 76.53823242 247.06318848 76.20146484 247.93286133 75.85449219 C248.74650146 75.52868164 249.5601416 75.20287109 250.3984375 74.8671875 C251.18049561 74.55402588 251.96255371 74.24086426 252.76831055 73.91821289 C254.83937945 73.06608619 256.87707364 72.15969126 258.91796875 71.23828125 C262.22720058 69.90871662 263.66678623 69.88892874 267 71 C266.80859375 72.85546875 266.80859375 72.85546875 266 75 C263.78515625 76.23828125 263.78515625 76.23828125 261.0625 77.3125 C256.80139526 79.22782355 256.80139526 79.22782355 254.5 83.25 C254.335 84.4875 254.17 85.725 254 87 C253.66613281 88.2478125 253.33226562 89.495625 252.98828125 90.78125 C251.4734551 97.52998591 251.65355623 104.36755006 251.6875 111.25 C251.68832581 111.95299225 251.68915161 112.6559845 251.69000244 113.38027954 C251.65123093 134.14565737 251.65123093 134.14565737 257 154 C257.3953543 155.49476419 257.76891098 156.99539852 258.125 158.5 C263.88582578 179.67950655 274.03167272 199.09827095 285 218 C283.47757149 217.56808366 281.95714081 217.12912438 280.4375 216.6875 C279.59058594 216.44386719 278.74367188 216.20023438 277.87109375 215.94921875 C275 215 275 215 271.63671875 213.54296875 C265.71010038 211.0284529 259.56999477 209.38261083 253.37451172 207.67919922 C251.10420493 207.02980651 248.8711086 206.30610705 246.62890625 205.56640625 C230.969272 200.77577251 214.90164694 201.4803242 198.6953125 201.7265625 C197.9230986 201.73731308 197.1508847 201.74806366 196.35527039 201.75914001 C195.62202042 201.77497635 194.88877045 201.79081268 194.13330078 201.80712891 C193.50158966 201.81998932 192.86987854 201.83284973 192.21902466 201.84609985 C189.12946028 202.06037616 186.06585973 202.56202004 183 203 C183 221.81 183 240.62 183 260 C190.69202099 257.75837781 190.69202099 257.75837781 198.0625 255 C205.63680914 251.80521231 213.56329562 249.48428976 221.3828125 246.96875 C223.14458917 246.39991894 224.90630616 245.83090302 226.66796875 245.26171875 C229.40359809 244.37803622 232.13952302 243.49533253 234.87646484 242.61572266 C237.54625488 241.75731995 240.21463744 240.89465748 242.8828125 240.03125 C243.69340118 239.77178589 244.50398987 239.51232178 245.33914185 239.24499512 C250.0214181 237.72505743 254.49247903 235.97688024 259 234 C260.41738917 233.48662689 261.84235275 232.99314266 263.27734375 232.53125 C264.41792236 232.16 264.41792236 232.16 265.58154297 231.78125 C266.37963379 231.5234375 267.17772461 231.265625 268 231 C269.73091438 230.4284311 271.46137021 229.855472 273.19140625 229.28125 C274.51495117 228.84232422 274.51495117 228.84232422 275.86523438 228.39453125 C276.75533203 228.09933594 277.64542969 227.80414063 278.5625 227.5 C279.45646484 227.20480469 280.35042969 226.90960938 281.27148438 226.60546875 C282.15255859 226.31285156 283.03363281 226.02023437 283.94140625 225.71875 C284.79621582 225.43515625 285.65102539 225.1515625 286.53173828 224.859375 C288.85702082 224.04978108 291.12263239 223.14730635 293.40234375 222.21875 C296.96410826 221.01215877 297.66966958 220.91905105 301 222 C300.80859375 223.9140625 300.80859375 223.9140625 300 226 C297.47689338 226.95228363 294.99287103 227.38842487 292.34765625 227.8984375 C289.75300555 228.79779084 289.75300555 228.79779084 288.91796875 231.5390625 C288.61503906 232.68117188 288.31210938 233.82328125 288 235 C287.44198499 236.40399375 286.86198675 237.79936028 286.265625 239.1875 C276.25296308 262.98780406 269.54993661 288.76087416 268.34130859 314.62060547 C268.09642665 319.62498778 268.09642665 319.62498778 267.49369812 321.96905518 C266.63657741 325.49502539 266.8373626 329.12370143 266.83203125 332.734375 C266.82567909 334.02675583 266.82567909 334.02675583 266.81919861 335.34524536 C266.80928379 338.14687943 266.80928389 340.94835142 266.8125 343.75 C266.81310425 344.70505432 266.8137085 345.66010864 266.81433105 346.644104 C266.83939722 361.18462039 267.17738959 375.55766376 269 390 C269.1448584 391.15725586 269.2897168 392.31451172 269.43896484 393.50683594 C270.89832933 404.88720119 272.38549921 416.12780635 275.29272461 427.23974609 C276.09981917 430.38956007 276.75278045 433.55101855 277.37988281 436.74047852 C279.60214394 448.02610373 282.68015254 458.99422506 286 470 C286.47276367 471.57056152 286.47276367 471.57056152 286.95507812 473.17285156 C290.25822936 484.10686393 293.62191167 495.02336362 297.1875 505.875 C297.40083984 506.53266357 297.61417969 507.19032715 297.83398438 507.86791992 C299.89604807 514.04554504 302.45919332 520.0070354 305 526 C305.87131442 528.0754282 306.74240716 530.15094949 307.61328125 532.2265625 C315.76339794 551.57094145 324.04378746 570.69820974 333.73046875 589.328125 C335 592 335 592 335 594 C336.11375 593.68546875 337.2275 593.3709375 338.375 593.046875 C339.91663364 592.61446556 341.45830226 592.18218084 343 591.75 C343.72445312 591.54503906 344.44890625 591.34007812 345.1953125 591.12890625 C356.98190123 587.83265686 368.89906145 585.01948051 380.7890625 582.125 C381.82996033 581.87147766 382.87085815 581.61795532 383.94329834 581.35675049 C392.72317252 579.2186412 392.72317252 579.2186412 396.88769531 578.20898438 C407.5611353 575.62012111 418.20488979 573.025621 428.74365234 569.92871094 C434.42934725 568.30714973 440.17474551 566.92167703 445.91601562 565.51293945 C449.46744008 564.63881307 453.01471581 563.74813773 456.5625 562.859375 C457.96873089 562.50773609 459.37498081 562.15617323 460.78125 561.8046875 C461.47347656 561.63163086 462.16570313 561.45857422 462.87890625 561.28027344 C468.5859375 559.85351562 474.29296875 558.42675781 480 557 C432.57538652 556.32556887 386.63816339 559.46640638 341.57617188 575.54785156 C340.62677734 575.88139648 339.67738281 576.21494141 338.69921875 576.55859375 C337.86221436 576.86079834 337.02520996 577.16300293 336.1628418 577.47436523 C334 578 334 578 331 577 C329.75390625 574.41015625 329.75390625 574.41015625 328.5625 571.0625 C328.129375 569.86882813 327.69625 568.67515625 327.25 567.4453125 C326.8375 566.30835938 326.425 565.17140625 326 564 C325.36060751 562.47644758 324.71533485 560.95534103 324.0625 559.4375 C320.75802007 551.17630016 318.48189833 542.53404182 316 534 C315.64180176 532.7723291 315.28360352 531.5446582 314.91455078 530.27978516 C312.62078398 522.41816952 310.33387385 514.55457611 308.06396484 506.68603516 C307.36452229 504.26286315 306.66181747 501.84062997 305.95556641 499.41943359 C303.64564803 491.44827641 301.55684385 483.44580183 299.625 475.375 C299.32682373 474.13371338 299.02864746 472.89242676 298.72143555 471.61352539 C295.83289239 459.47949935 293.18486116 447.29931228 290.64794922 435.08740234 C290.0760777 432.36250135 289.48283017 429.64371217 288.87890625 426.92578125 C285.79870934 412.78354512 284.09229542 398.45649224 282.47021484 384.08789062 C282.04279426 380.31951187 281.56240882 376.55888052 281.08203125 372.796875 C278.95711578 354.91418662 278.7091314 337.12115742 278.6875 319.125 C278.68391479 317.91626221 278.68032959 316.70752441 278.67663574 315.4621582 C278.6585069 304.1088761 278.68389373 292.79161638 279.89453125 281.4921875 C279.97176926 280.7628299 280.04900726 280.03347229 280.12858582 279.28201294 C280.55939863 275.82091912 281.02683724 273.95974414 283 271 C283.31638428 271.96486328 283.31638428 271.96486328 283.63916016 272.94921875 C299.86315238 322.31663514 322.04004654 365.98575574 354.35107422 406.90576172 C355.8802983 408.84797139 357.39779853 410.79855049 358.91015625 412.75390625 C367.49340032 423.82743554 376.59059869 434.42062827 386.0078125 444.79296875 C387.76193381 446.73626001 389.47972694 448.70359448 391.1875 450.6875 C396.32690094 456.58304269 401.7251179 462.24518567 407.07666016 467.94726562 C409.00724701 470.00773456 410.93202144 472.07349145 412.85546875 474.140625 C418.48532399 480.18242087 424.12360688 486.19645896 430 492 C432.86941171 494.83585134 435.64443684 497.67069808 438.25 500.75 C441.77634259 504.89259663 445.63782693 508.67466282 449.5 512.5 C453.84942393 516.81224937 458.12372528 521.10749975 462.07421875 525.79296875 C464.32374285 528.37102376 466.664406 530.85110311 469.01318359 533.33862305 C473.91674236 538.53732127 478.78794108 543.75937644 483.4375 549.1875 C484.15808594 550.02667969 484.87867188 550.86585938 485.62109375 551.73046875 C487 554 487 554 486.90991211 556.0168457 C486 558 486 558 483.76611328 559.125 C482.79399902 559.41375 481.82188477 559.7025 480.8203125 560 C479.74523438 560.33 478.67015625 560.66 477.5625 561 C476.428125 561.33 475.29375 561.66 474.125 562 C471.91862006 562.66450972 469.71288453 563.33116299 467.5078125 564 C466.41799072 564.32774414 465.32816895 564.65548828 464.20532227 564.99316406 C460.24016148 566.23867576 456.35722309 567.66486158 452.46191406 569.11132812 C449.11279959 570.32025084 445.7418556 571.28963709 442.3125 572.25 C435.30013647 574.25147213 428.40243735 576.5245673 421.5 578.875 C411.96449269 582.11318544 402.36495099 584.96414523 392.63671875 587.56591797 C387.85411652 588.85776116 383.18531168 590.25016643 378.54296875 591.984375 C372.66113009 594.18132662 366.68116811 595.85664105 360.625 597.5 C358.39940668 598.11337669 356.17414143 598.72794512 353.94921875 599.34375 C352.90556152 599.6325 351.8619043 599.92125 350.78662109 600.21875 C346.67846069 601.3705034 342.60920708 602.63206503 338.5390625 603.91015625 C325.96230101 607.78313247 313.2960982 611.38657155 300.625 614.9375 C299.87645752 615.14882568 299.12791504 615.36015137 298.35668945 615.57788086 C293.23814844 617 293.23814844 617 291 617 C290.69255859 618.13888672 290.69255859 618.13888672 290.37890625 619.30078125 C289.97478516 620.79158203 289.97478516 620.79158203 289.5625 622.3125 C289.29566406 623.29863281 289.02882813 624.28476562 288.75390625 625.30078125 C288.21920575 627.21517526 287.62855462 629.11433615 287 631 C288.07894531 630.56042969 289.15789063 630.12085938 290.26953125 629.66796875 C295.62121978 627.66329529 301.1065303 626.49439442 306.6875 625.3125 C307.70650391 625.08755859 308.72550781 624.86261719 309.77539062 624.63085938 C314.27847141 623.66191655 318.37572983 622.86853126 323 623 C322.44508491 636.31796215 320.51175385 649.12356923 317 662 C316.773125 663.27875 316.54625 664.5575 316.3125 665.875 C315.6628125 667.421875 315.6628125 667.421875 315 669 C311.875 670 311.875 670 309.98364258 670.38378906 C303.84885758 672.28953643 299.76834731 677.92019315 296.83984375 683.328125 C295.85680583 685.29436594 294.88973743 687.26865933 293.9375 689.25 C292.90022097 691.31275242 291.85989392 693.37397515 290.81640625 695.43359375 C290.3280127 696.40538574 289.83961914 697.37717773 289.33642578 698.37841797 C281.18164242 714.37514135 269.20245684 725.70702025 252.38671875 732.2734375 C249.61640755 733.11677283 246.8571129 733.54440831 244 734 C245.16796112 734.00586624 246.33592224 734.01173248 247.53927612 734.01777649 C258.57340339 734.07511502 269.60733568 734.14793467 280.64126396 734.23571491 C286.3132369 734.28034597 291.98513921 734.31961813 297.65722656 734.34643555 C303.13627749 734.37254092 308.61505557 734.41299452 314.09393692 734.46318626 C316.17895221 734.47980611 318.26401464 734.49135066 320.34908676 734.49761391 C323.28102635 734.5073082 326.21227551 734.53543088 329.14404297 734.56762695 C329.99641037 734.56619186 330.84877777 734.56475677 331.72697449 734.5632782 C339.87043228 734.68885312 347.64621741 736.41093214 354.25 741.375 C355.06726562 741.98472656 355.88453125 742.59445312 356.7265625 743.22265625 C357.47679687 743.80917969 358.22703125 744.39570312 359 745 C359.64710938 745.49371094 360.29421875 745.98742187 360.9609375 746.49609375 C362.35879149 747.60190782 363.68899107 748.79249177 365 750 C365 750.66 365 751.32 365 752 C137.96 752 -89.08 752 -323 752 C-323 750 -323 750 -321.4609375 748.4140625 C-307.11074142 736.10621643 -294.40563378 734.39899656 -276.13671875 734.390625 C-274.24956362 734.37561437 -272.36242148 734.35888127 -270.47529602 734.34051514 C-265.55172055 734.2971527 -260.62832218 734.27691215 -255.70458984 734.26177979 C-250.66298076 734.24209556 -245.62155986 734.20013892 -240.58007812 734.16015625 C-230.72011058 734.08519181 -220.86018583 734.03469686 -211 734 C-211.87970459 733.7417041 -212.75940918 733.4834082 -213.66577148 733.21728516 C-215.40709351 732.69593994 -215.40709351 732.69593994 -217.18359375 732.1640625 C-218.33142334 731.8232666 -219.47925293 731.4824707 -220.66186523 731.13134766 C-242.22152164 723.82443273 -253.96020353 704.69440125 -263.77685547 685.60351562 C-272.090938 669.60255747 -282.03393546 654.38919403 -299.8112793 648.74267578 C-301.40614401 648.25698367 -303.00795472 647.79340593 -304.61645508 647.35498047 C-310.19229167 645.718444 -312.80955388 643.91704049 -316 639 C-317.66456813 633.65379884 -315.69123057 628.99861344 -313.4375 624.125 C-310.73178769 618.06605449 -310.21993234 613.41813284 -312 607 C-316.33291198 596.75372863 -325.05100698 591.8632813 -334.94677734 587.80175781 C-340.50620478 585.63087081 -346.16032827 583.72131021 -351.8125 581.80859375 C-356.54893857 580.18408837 -361.21348645 578.40167347 -365.88134766 576.59057617 C-371.19565306 574.53180443 -376.5266066 572.51680909 -381.85546875 570.49609375 C-384.04622805 569.66472432 -386.23698318 568.83334392 -388.42773438 568.00195312 C-391.81747749 566.71583241 -395.20732337 565.4299848 -398.59741211 564.14477539 C-401.91290364 562.88768639 -405.22796591 561.62947081 -408.54296875 560.37109375 C-409.54426315 559.99182236 -410.54555756 559.61255096 -411.57719421 559.2217865 C-416.95731672 557.17851199 -422.31536145 555.08938326 -427.65464783 552.94169617 C-437.60520517 548.94638927 -447.62150371 545.12016491 -457.67578125 541.39453125 C-459.28063556 540.79762444 -460.88545331 540.20061932 -462.49023438 539.60351562 C-464.92630035 538.69720496 -467.36328865 537.79386804 -469.8034668 536.89868164 C-472.22252337 536.01005347 -474.63691565 535.10964901 -477.05078125 534.20703125 C-477.77783768 533.94340286 -478.5048941 533.67977448 -479.25398254 533.40815735 C-483.45157437 531.82461576 -486.61286916 530.04284478 -490 527 C-489.125 523.125 -489.125 523.125 -488 522 C-480.5620811 521.3085129 -474.42554706 523.49486376 -467.4375 525.875 C-464.21540257 526.94587912 -460.99257237 528.01449419 -457.76904297 529.08105469 C-456.13441697 529.623528 -454.50211412 530.17324735 -452.87548828 530.73925781 C-446.53323575 532.81211706 -441.79890144 531.13558603 -435.95703125 528.33984375 C-434.80928223 527.79739014 -433.6615332 527.25493652 -432.47900391 526.69604492 C-431.25669091 526.11016575 -430.03452574 525.52397808 -428.8125 524.9375 C-426.29803234 523.73955229 -423.78093337 522.54730644 -421.26171875 521.359375 C-420.63982666 521.06588669 -420.01793457 520.77239838 -419.37719727 520.47001648 C-415.67534631 518.73829602 -411.9496008 517.13092725 -408.14453125 515.640625 C-407.28561279 515.30297119 -406.42669434 514.96531738 -405.54174805 514.61743164 C-403.98986286 514.02028741 -402.4304384 513.44218867 -400.86254883 512.88842773 C-391.33807237 509.20392141 -387.32932356 499.42554364 -382.375 491.0625 C-374.19431542 477.44902409 -365.18415672 464.61594645 -355.41796875 452.1015625 C-353.38811581 449.49784161 -351.393588 446.87118971 -349.40649414 444.23486328 C-344.7530546 438.08930344 -339.82496209 432.23413402 -334.74023438 426.44140625 C-331.6331292 422.8998175 -328.6178854 419.31594344 -325.6875 415.625 C-320.5470993 409.2728658 -314.89161472 403.41489692 -309.2578125 397.50390625 C-306.15078391 394.24127739 -303.11361521 390.92303116 -300.09008789 387.58300781 C-293.69625467 380.57492017 -287.01387535 373.86845304 -280.30078125 367.16796875 C-279.01272808 365.8792396 -277.72482319 364.59036224 -276.4370575 363.30134583 C-273.76035565 360.62318299 -271.08188777 357.94680305 -268.40209961 355.27172852 C-264.98628827 351.86163675 -261.57501907 348.447042 -258.16505146 345.0311079 C-255.51501299 342.37744012 -252.86257805 339.72617794 -250.2094326 337.07561684 C-248.95093837 335.81778412 -247.69317105 334.55922362 -246.43618202 333.2998867 C-234.59379181 321.44021209 -234.59379181 321.44021209 -228.6516571 316.43147278 C-225.42719129 313.63686425 -222.48563143 310.5448686 -219.5 307.5 C-215.13627105 303.08914771 -210.76559026 298.80236042 -206.01953125 294.80078125 C-202.6750756 291.81858772 -199.57345171 288.59297042 -196.42553711 285.40600586 C-193.07369347 282.02870115 -189.6175872 278.85728372 -185.9921875 275.7734375 C-182.65816175 272.80550085 -179.57739515 269.58444731 -176.44140625 266.41015625 C-173.72797273 263.73145468 -170.89222977 261.25391882 -167.99609375 258.77734375 C-165.73867374 256.76731223 -163.62264287 254.65167047 -161.5 252.5 C-158.79196435 249.75499458 -156.05830751 247.1272909 -153.125 244.625 C-149.23958847 241.29685865 -145.66302773 237.69264303 -142.07348633 234.05395508 C-138.8066752 230.75990634 -135.42123621 227.68533192 -131.89453125 224.67578125 C-129.13339675 222.23345816 -126.58531189 219.59445739 -124 216.96875 C-121.43694772 214.44574541 -118.72654176 212.12437183 -116 209.78125 C-113.91662922 207.9257479 -111.95718793 205.98776899 -110 204 C-107.55336563 201.52036671 -105.07892226 199.14559624 -102.4375 196.875 C-97.14360198 192.30629349 -92.03452376 187.54562446 -86.96875 182.7265625 C-84.40307678 180.28841536 -81.78722646 177.94413745 -79.09375 175.6484375 C-69.82039415 167.483709 -66.67601927 160.28119435 -64.49072266 148.21582031 C-63.70129378 144.65121509 -62.3669148 141.38070758 -61 138 C-61.721875 138.33 -62.44375 138.66 -63.1875 139 C-66.01697427 140.00603529 -68.02895466 140.16977402 -71 140 C-71 138.68 -71 137.36 -71 136 C-64.00475492 132.90635818 -57.04041158 129.95086017 -49.8125 127.4375 C-44.66099421 125.6439279 -39.77504442 123.57060914 -34.84375 121.25 C-30.47015017 119.32753854 -25.95761578 117.83148238 -21.4453125 116.26953125 C-17.26808606 114.73030382 -13.29378607 112.8882682 -9.3046875 110.91796875 C-7 110 -7 110 -3 110 C-3.01571045 108.76403076 -3.0314209 107.52806152 -3.04760742 106.25463867 C-3.45570881 70.71435889 -2.12951225 35.46362571 0 0 Z " fill="#010103" transform="translate(782,204)"/>
<path d="M0 0 C2.42774954 2.42774954 2.80973964 4.17573055 3.76953125 7.4609375 C4.26743164 9.12962891 4.26743164 9.12962891 4.77539062 10.83203125 C5.45533994 13.15487129 6.13503643 15.47778536 6.81445312 17.80078125 C9.09201931 25.43346945 11.80044855 32.70793795 15 40 C15.31976807 40.74910645 15.63953613 41.49821289 15.96899414 42.27001953 C30.53680149 76.37037522 49.41305267 106.85611377 72.35107422 135.90576172 C73.8802983 137.84797139 75.39779853 139.79855049 76.91015625 141.75390625 C85.49340032 152.82743554 94.59059869 163.42062827 104.0078125 173.79296875 C105.76193381 175.73626001 107.47972694 177.70359448 109.1875 179.6875 C114.32690094 185.58304269 119.7251179 191.24518567 125.07666016 196.94726562 C127.00724701 199.00773456 128.93202144 201.07349145 130.85546875 203.140625 C136.48532399 209.18242087 142.12360688 215.19645896 148 221 C150.86941171 223.83585134 153.64443684 226.67069808 156.25 229.75 C159.77634259 233.89259663 163.63782693 237.67466282 167.5 241.5 C171.84942393 245.81224937 176.12372528 250.10749975 180.07421875 254.79296875 C182.32373681 257.37101683 184.66449567 259.85104706 187.01293945 262.33886719 C205 281.4036892 205 281.4036892 205 286 C204.34 286 203.68 286 203 286 C203 285.34 203 284.68 203 284 C154.35915896 284.46770039 105.72239802 288.07947142 59.57617188 304.54785156 C58.15208008 305.04816895 58.15208008 305.04816895 56.69921875 305.55859375 C55.86221436 305.86079834 55.02520996 306.16300293 54.1628418 306.47436523 C52 307 52 307 49 306 C47.75390625 303.41015625 47.75390625 303.41015625 46.5625 300.0625 C46.129375 298.86882812 45.69625 297.67515625 45.25 296.4453125 C44.8375 295.30835938 44.425 294.17140625 44 293 C43.36060751 291.47644758 42.71533485 289.95534103 42.0625 288.4375 C38.75802007 280.17630016 36.48189833 271.53404182 34 263 C33.46270264 261.15849365 33.46270264 261.15849365 32.91455078 259.27978516 C30.62078398 251.41816952 28.33387385 243.55457611 26.06396484 235.68603516 C25.36452229 233.26286315 24.66181747 230.84062997 23.95556641 228.41943359 C21.64564803 220.44827641 19.55684385 212.44580183 17.625 204.375 C17.32682373 203.13371338 17.02864746 201.89242676 16.72143555 200.61352539 C13.83289239 188.47949935 11.18486116 176.29931228 8.64794922 164.08740234 C8.0760777 161.36250135 7.48283017 158.64371217 6.87890625 155.92578125 C3.79870934 141.78354512 2.09229542 127.45649224 0.47021484 113.08789062 C0.04279426 109.31951187 -0.43759118 105.55888052 -0.91796875 101.796875 C-3.04288422 83.91418662 -3.2908686 66.12115742 -3.3125 48.125 C-3.31608521 46.91626221 -3.31967041 45.70752441 -3.32336426 44.4621582 C-3.37817836 10.13453508 -3.37817836 10.13453508 0 0 Z " fill="#010103" transform="translate(1064,475)"/>
<path d="M0 0 C0.99 0.99 0.99 0.99 2 2 C-2.5417286 7.67167557 -7.13850209 13.2186263 -12.0625 18.5625 C-15.85624898 22.69476811 -19.45297447 26.90888377 -22.90234375 31.33203125 C-24.36212713 33.18870174 -25.85734288 35.01783071 -27.37890625 36.82421875 C-36.94041888 48.30057977 -44.4092723 61.17771519 -52 74 C-52.51014648 74.8573877 -53.02029297 75.71477539 -53.54589844 76.59814453 C-84.98406655 129.8344779 -93.94417798 191.37132593 -85 252 C-84.88253418 252.79970215 -84.76506836 253.5994043 -84.64404297 254.42333984 C-83.06972448 264.66443058 -80.42111134 274.66748632 -77.65283203 284.640625 C-77.01528906 286.9447444 -76.3960995 289.25327758 -75.77734375 291.5625 C-73.38508012 300.28694294 -70.28564161 307.99520963 -66 316 C-64.9413689 318.31476799 -63.96387867 320.64385214 -63 323 C-58.17403931 319.84577733 -53.42442592 316.71080883 -49 313 C-48.34 313.33 -47.68 313.66 -47 314 C-48.267051 319.08276779 -49.94494801 321.26675621 -54.125 324.375 C-55.03507813 325.06335938 -55.94515625 325.75171875 -56.8828125 326.4609375 C-57.58148437 326.96882813 -58.28015625 327.47671875 -59 328 C-57.9545909 330.72260892 -56.94238272 333.09085802 -55.375 335.5625 C-54 338 -54 338 -54 342 C-57.75213691 341.63393786 -60.36989723 340.89666994 -63.5 338.875 C-66.77993027 336.7912341 -66.77993027 336.7912341 -70 336.875 C-73.58899814 338.2208743 -75.69735037 340.13712657 -78.38671875 342.8203125 C-78.91910156 343.20960938 -79.45148438 343.59890625 -80 344 C-80.99 343.67 -81.98 343.34 -83 343 C-81.72278474 338.00724943 -79.82669043 335.42388092 -76 332 C-76.78117188 331.76925781 -77.56234375 331.53851562 -78.3671875 331.30078125 C-83.12737361 329.59632752 -87.58265624 327.3984361 -92.125 325.1875 C-94.94086092 323.84021074 -97.75892777 322.49761795 -100.57714844 321.15527344 C-102.44136584 320.2663701 -104.30322559 319.37252101 -106.1640625 318.4765625 C-113.04800015 315.37775069 -120.25353853 313.37362878 -127.5 311.3125 C-128.54510742 311.01448486 -129.59021484 310.71646973 -130.66699219 310.40942383 C-142.54487754 307.13453179 -153.84165594 305.66487507 -166.13769531 305.73925781 C-168.26135322 305.75005774 -170.38417874 305.73925548 -172.5078125 305.7265625 C-179.30612242 305.71910947 -185.50355033 305.89183106 -192 308 C-193.04285156 308.30679687 -194.08570313 308.61359375 -195.16015625 308.9296875 C-200.88984601 310.79588524 -205.85935528 312.87091191 -211 316 C-211.66 316 -212.32 316 -213 316 C-212.54870136 311.01539929 -212.07478329 306.03341327 -211.5625 301.0546875 C-211.43294922 299.79374268 -211.43294922 299.79374268 -211.30078125 298.50732422 C-210.79195832 294.26575649 -210.01068689 290.14775398 -209 286 C-208.78085937 284.9790625 -208.56171875 283.958125 -208.3359375 282.90625 C-203.38294864 261.24270994 -195.74738878 239.94446488 -186 220 C-185.21202018 218.3464587 -184.424264 216.69281082 -183.63671875 215.0390625 C-163.1885025 172.64180577 -133.35053329 135.14407299 -101.52734375 100.7421875 C-99.26405783 98.28650479 -97.03347539 95.80637407 -94.8125 93.3125 C-83.23940131 80.47139224 -71.20997765 68.10808669 -59 55.875 C-58.05211609 54.9232338 -58.05211609 54.9232338 -57.08508301 53.95223999 C-45.02362823 41.85184321 -45.02362823 41.85184321 -38.6328125 36.41455078 C-36.11753508 34.23549615 -33.82507064 31.88109644 -31.5 29.5 C-27.80446807 25.7541237 -24.03219476 22.16493384 -20.03125 18.74609375 C-17.63030779 16.68220689 -15.28483232 14.56211856 -12.9375 12.4375 C-9.97737055 9.76059281 -6.99310601 7.12970997 -3.9375 4.5625 C-1.00970985 2.33611003 -1.00970985 2.33611003 0 0 Z " fill="#020203" transform="translate(726,452)"/>
<path d="M0 0 C0.33 0.99 0.66 1.98 1 3 C1.66 3 2.32 3 3 3 C-0.84962534 11.31664342 -8.44789937 17.49424025 -14.87060547 23.8515625 C-18.55629254 27.51259285 -22.07113865 31.24481197 -25.4296875 35.2109375 C-27.82705094 37.94226202 -30.43882182 40.44747196 -33.02734375 42.99609375 C-35.57337829 45.58246151 -37.92021557 48.3153528 -40.28515625 51.06640625 C-41.96004299 52.95494597 -43.69947587 54.73155648 -45.5 56.5 C-48.53594925 59.48872337 -51.34508659 62.61706479 -54.125 65.84375 C-56.17359094 68.19962958 -58.27203002 70.5050746 -60.375 72.8125 C-64.2755834 77.13476809 -67.97944985 81.58433168 -71.63671875 86.11328125 C-73.66456167 88.59026624 -75.73814435 91.01762791 -77.83618164 93.43505859 C-94.05445539 112.21719675 -108.40310956 133.06096464 -120 155 C-120.35046387 155.66241699 -120.70092773 156.32483398 -121.06201172 157.00732422 C-126.00999842 166.4447705 -130.29677224 176.00549325 -134 186 C-134.45375 187.22460938 -134.9075 188.44921875 -135.375 189.7109375 C-146.35108813 220.87518774 -145.45182055 256.92595516 -131.4609375 286.96875 C-127.86037094 294.43016505 -124.01654069 301.75503417 -120 309 C-124.1227058 309 -126.84610865 307.0183844 -130.3125 305 C-131.0230957 304.59426758 -131.73369141 304.18853516 -132.46582031 303.77050781 C-135.90654293 301.80284935 -139.3307336 299.80817317 -142.74609375 297.796875 C-149.95901022 293.56912779 -157.1611833 289.92977172 -165 287 C-165.79019531 286.70351563 -166.58039063 286.40703125 -167.39453125 286.1015625 C-177.65206094 282.47280418 -187.64836411 281.62702192 -198.45678711 281.62939453 C-200.66664954 281.62504108 -202.87447581 281.58866838 -205.08398438 281.55078125 C-219.5862867 281.43608497 -231.73403974 285.10847082 -245 291 C-246.66380657 291.67377291 -248.32961668 292.34270115 -250 293 C-249.39610805 287.30483435 -247.3111628 282.51427394 -245.0625 277.3125 C-244.70220703 276.45849609 -244.34191406 275.60449219 -243.97070312 274.72460938 C-242.48982945 271.25287422 -241.10159542 268.15239314 -239 265 C-252.2 270.94 -265.4 276.88 -279 283 C-279 283.66 -279 284.32 -279 285 C-280.32 284.34 -281.64 283.68 -283 283 C-282.92871094 281.21630859 -282.92871094 281.21630859 -282 279 C-279.70375027 277.64263921 -277.57678631 276.57942396 -275.140625 275.5390625 C-274.44040222 275.22601166 -273.74017944 274.91296082 -273.01873779 274.59042358 C-270.76838345 273.58798281 -268.50969513 272.60617707 -266.25 271.625 C-264.77413127 270.97272885 -263.29886331 270.31909654 -261.82421875 269.6640625 C-258.92944203 268.38038288 -256.03375677 267.09881637 -253.13647461 265.82080078 C-252.44439911 265.51547424 -251.75232361 265.21014771 -251.03927612 264.89556885 C-249.70560565 264.3098739 -248.37047124 263.7274983 -247.03372192 263.14886475 C-245.23324375 262.36901569 -243.43871676 261.57546945 -241.64453125 260.78125 C-240.63495361 260.34103516 -239.62537598 259.90082031 -238.58520508 259.44726562 C-233.78900526 256.76222714 -231.64353918 252.67917588 -229 248 C-227.11717455 244.80474734 -225.21361747 241.62189435 -223.3125 238.4375 C-222.79953369 237.57229736 -222.28656738 236.70709473 -221.75805664 235.81567383 C-214.48861837 223.64508536 -206.13276846 212.26869854 -197.41796875 201.1015625 C-195.38811581 198.49784161 -193.393588 195.87118971 -191.40649414 193.23486328 C-186.7530546 187.08930344 -181.82496209 181.23413402 -176.74023438 175.44140625 C-173.6331292 171.8998175 -170.6178854 168.31594344 -167.6875 164.625 C-162.5470993 158.2728658 -156.89161472 152.41489692 -151.2578125 146.50390625 C-148.15078391 143.24127739 -145.11361521 139.92303116 -142.09008789 136.58300781 C-135.69625467 129.57492017 -129.01387535 122.86845304 -122.30078125 116.16796875 C-121.01272808 114.8792396 -119.72482319 113.59036224 -118.4370575 112.30134583 C-115.76035565 109.62318299 -113.08188777 106.94680305 -110.40209961 104.27172852 C-106.98628827 100.86163675 -103.57501907 97.447042 -100.16505146 94.0311079 C-97.51501299 91.37744012 -94.86257805 88.72617794 -92.2094326 86.07561684 C-90.95093837 84.81778412 -89.69317105 83.55922362 -88.43618202 82.2998867 C-76.59379181 70.44021209 -76.59379181 70.44021209 -70.6516571 65.43147278 C-67.42719129 62.63686425 -64.48563143 59.5448686 -61.5 56.5 C-57.13627105 52.08914771 -52.76559026 47.80236042 -48.01953125 43.80078125 C-44.6750756 40.81858772 -41.57345171 37.59297042 -38.42553711 34.40600586 C-35.07758254 31.03261976 -31.62683551 27.86351159 -28.00390625 24.78515625 C-24.64455935 21.79252168 -21.53384223 18.55248759 -18.39453125 15.33203125 C-15.34237764 12.35954234 -12.27895039 9.7214592 -8.5625 7.625 C-5.18824896 5.48523105 -2.75899574 2.88732113 0 0 Z " fill="#030305" transform="translate(624,455)"/>
<path d="M0 0 C0 4 0 8 0 12 C-0.33 12 -0.66 12 -1 12 C-1.495 9.03 -1.495 9.03 -2 6 C-8.92282247 12.89956444 -15.84287622 19.80189289 -22.75949192 26.70767975 C-25.97187162 29.91485993 -29.18516679 33.12111116 -32.40063477 36.32519531 C-35.50866134 39.42228825 -38.61417754 42.52187867 -41.71803093 45.62315369 C-42.89756718 46.80085445 -44.07797732 47.97768069 -45.25930977 49.15357971 C-50.85922985 54.72878559 -56.40397147 60.29906349 -61.53895569 66.31311035 C-63.74628014 68.86163865 -66.10470145 71.21650795 -68.49609375 73.59375 C-68.97450211 74.07074341 -69.45291046 74.54773682 -69.94581604 75.03918457 C-71.44066514 76.52853695 -72.93899059 78.01433149 -74.4375 79.5 C-75.4657298 80.52320139 -76.49372626 81.54663733 -77.52148438 82.5703125 C-80.01164338 85.04957999 -82.50492833 87.52567538 -85 90 C-85.99 89.67 -86.98 89.34 -88 89 C-88.33 88.34 -88.66 87.68 -89 87 C-91.64 89.64 -94.28 92.28 -97 95 C-97.66 94.67 -98.32 94.34 -99 94 C-88.54918033 83.37628074 -88.54918033 83.37628074 -84 79.5 C-80.15115095 76.21901393 -76.62140952 72.65044506 -73.07299805 69.0534668 C-69.80635453 65.7595776 -66.42105964 62.68518124 -62.89453125 59.67578125 C-60.13339675 57.23345816 -57.58531189 54.59445739 -55 51.96875 C-52.43694772 49.44574541 -49.72654176 47.12437183 -47 44.78125 C-44.91662922 42.9257479 -42.95718793 40.98776899 -41 39 C-38.55336563 36.52036671 -36.07892226 34.14559624 -33.4375 31.875 C-21.77156327 21.8071368 -10.81542004 10.96540275 0 0 Z " fill="#131313" transform="translate(713,369)"/>
<path d="M0 0 C4.33358342 0.30909176 8.66681422 0.62288661 13 0.9375 C14.83111328 1.06801758 14.83111328 1.06801758 16.69921875 1.20117188 C22.82767368 1.64838345 28.91297653 2.15542549 35 3 C35 5.31 35 7.62 35 10 C27.17720355 10.23899916 19.62737772 9.50059759 11.875 8.5 C10.72773437 8.35691406 9.58046875 8.21382812 8.3984375 8.06640625 C5.59822529 7.71637972 2.79883952 7.3608104 0 7 C0 4.69 0 2.38 0 0 Z " fill="#EEEEEE" transform="translate(831,809)"/>
<path d="M0 0 C22.80127986 0.9874945 22.80127986 0.9874945 32 2 C32 4.31 32 6.62 32 9 C21.14700916 9.28435784 10.74631163 8.47317858 0 7 C0 4.69 0 2.38 0 0 Z " fill="#E4E3E4" transform="translate(875,813)"/>
<path d="M0 0 C11.85661357 1.24290018 23.36967492 3.39581851 35 6 C35 7.98 35 9.96 35 12 C30.26095023 12.12242608 26.06659327 11.76318008 21.4453125 10.72265625 C20.25421875 10.45646484 19.063125 10.19027344 17.8359375 9.91601562 C15.99902344 9.49352539 15.99902344 9.49352539 14.125 9.0625 C12.8771875 8.78470703 11.629375 8.50691406 10.34375 8.22070312 C1.14043257 6.14043257 1.14043257 6.14043257 0 5 C-0.04063832 3.33382885 -0.042721 1.66611905 0 0 Z " fill="#EBEBEC" transform="translate(486,776)"/>
<path d="M0 0 C29.15619775 4.05206592 29.15619775 4.05206592 35 6 C35 7.65 35 9.3 35 11 C26.65005939 10.43902934 18.4913331 9.37718967 10.25 7.9375 C9.15945313 7.75123047 8.06890625 7.56496094 6.9453125 7.37304688 C4.29606214 6.91988563 1.64769297 6.46215796 -1 6 C-0.67 4.02 -0.34 2.04 0 0 Z " fill="#E9E8E9" transform="translate(673,814)"/>
<path d="M0 0 C12.87 0 25.74 0 39 0 C39.495 1.485 39.495 1.485 40 3 C39.30028076 3.22139648 38.60056152 3.44279297 37.87963867 3.67089844 C34.64816118 4.69487004 31.41783052 5.72241601 28.1875 6.75 C27.08728516 7.09804688 25.98707031 7.44609375 24.85351562 7.8046875 C18.63875617 9.78461087 12.48478981 11.86530037 6.37597656 14.15234375 C1.58242536 15.86249683 -2.87303409 17 -8 17 C-8 15.68 -8 14.36 -8 13 C5.92830837 9.02550797 19.93832232 5.4750123 34 2 C22.78 1.67 11.56 1.34 0 1 C0 0.67 0 0.34 0 0 Z " fill="#1E1E1E" transform="translate(1228,759)"/>
<path d="M0 0 C0.59683594 0.10957031 1.19367187 0.21914063 1.80859375 0.33203125 C10.53231744 1.92641166 19.26583558 3.4640977 28 5 C28 6.98 28 8.96 28 11 C21.3165556 11.21581253 15.44088006 10.49340613 8.9375 9 C8.07189453 8.80921875 7.20628906 8.6184375 6.31445312 8.421875 C4.20776339 7.95630821 2.10359536 7.47935439 0 7 C0 4.69 0 2.38 0 0 Z " fill="#E7E7E8" transform="translate(595,799)"/>
<path d="M0 0 C9.55817699 0.77935905 18.82213258 2.93816862 28.1640625 5.01953125 C28.1640625 6.66953125 28.1640625 8.31953125 28.1640625 10.01953125 C21.19433229 10.24828137 14.91869487 9.42375615 8.1015625 8.01953125 C7.14056641 7.82875 6.17957031 7.63796875 5.18945312 7.44140625 C2.8460165 6.9750507 0.50443485 6.50098659 -1.8359375 6.01953125 C-2.21812517 4.36338468 -2.54988852 2.69496101 -2.8359375 1.01953125 C-1.8359375 0.01953125 -1.8359375 0.01953125 0 0 Z " fill="#E9E9E9" transform="translate(635.8359375,806.98046875)"/>
<path d="M0 0 C11.08693071 0.66567493 22.02376553 2.36035171 33 4 C33 5.65 33 7.3 33 9 C21.7802581 8.56208275 11.01494915 7.16754569 0 5 C0 3.35 0 1.7 0 0 Z " fill="#E9E8E9" transform="translate(717,822)"/>
<path d="M0 0 C3.29164829 -0.02895225 6.58326399 -0.0467823 9.875 -0.0625 C10.81214844 -0.07087891 11.74929688 -0.07925781 12.71484375 -0.08789062 C14.05869141 -0.09272461 14.05869141 -0.09272461 15.4296875 -0.09765625 C16.67081299 -0.10551147 16.67081299 -0.10551147 17.93701172 -0.11352539 C20 0 20 0 22 1 C22 3.31 22 5.62 22 8 C14.59760355 8.12886183 7.36040917 7.79725902 0 7 C0 4.69 0 2.38 0 0 Z " fill="#E7E7E7" transform="translate(965,821)"/>
<path d="M0 0 C0.66 0.33 1.32 0.66 2 1 C2.495 2.485 2.495 2.485 3 4 C-7.89 8.95 -18.78 13.9 -30 19 C-30 19.66 -30 20.32 -30 21 C-31.32 20.34 -32.64 19.68 -34 19 C-33.95288086 17.23168945 -33.95288086 17.23168945 -33 15 C-30.57998517 13.56333578 -28.31640763 12.41333771 -25.75390625 11.29296875 C-25.02759506 10.96331619 -24.30128387 10.63366364 -23.55296326 10.29402161 C-22.01688157 9.6005597 -20.47754884 8.91426119 -18.93530273 8.23461914 C-16.56788541 7.18987659 -14.21234429 6.12139383 -11.85742188 5.04882812 C-10.36522428 4.37877912 -8.87240547 3.71011147 -7.37890625 3.04296875 C-6.67053116 2.72224899 -5.96215607 2.40152924 -5.23231506 2.0710907 C-3.51372525 1.31945698 -1.75903873 0.65137311 0 0 Z " fill="#121212" transform="translate(375,719)"/>
<path d="M0 0 C4.82422481 0.64405569 9.55023745 1.47695756 14.3125 2.5 C15.52550781 2.7578125 16.73851562 3.015625 17.98828125 3.28125 C21 4 21 4 23 5 C23 6.65 23 8.3 23 10 C19.82540369 11.01498547 17.69122329 10.94466465 14.453125 10.22265625 C13.60878906 10.03896484 12.76445313 9.85527344 11.89453125 9.66601562 C10.58548828 9.36727539 10.58548828 9.36727539 9.25 9.0625 C8.36183594 8.86720703 7.47367188 8.67191406 6.55859375 8.47070312 C4.37050678 7.98838288 2.1845827 7.49790968 0 7 C0 4.69 0 2.38 0 0 Z " fill="#E7E7E7" transform="translate(530,785)"/>
<path d="M0 0 C21.46721311 3.46721311 21.46721311 3.46721311 23 5 C23.04080783 6.99958364 23.04254356 9.00045254 23 11 C15.23216563 10.20736384 7.6370361 8.58110513 0 7 C0 4.69 0 2.38 0 0 Z " fill="#EAEAEB" transform="translate(562,792)"/>
<path d="M0 0 C0 4 0 8 0 12 C-0.33 12 -0.66 12 -1 12 C-1.495 9.03 -1.495 9.03 -2 6 C-13.88 17.88 -25.76 29.76 -38 42 C-39.32 41.34 -40.64 40.68 -42 40 C-39.54333758 37.68571962 -37.08464289 35.37361241 -34.625 33.0625 C-33.88765625 32.36954834 -33.1503125 31.67659668 -32.390625 30.96264648 C-28.63725862 27.44345395 -24.86340068 23.96123049 -21 20.5625 C-13.68189337 14.04913362 -6.88286322 6.96623745 0 0 Z " fill="#191919" transform="translate(713,369)"/>
<path d="M0 0 C0.33 1.32 0.66 2.64 1 4 C-1.22582389 4.84334329 -3.45496026 5.67478551 -5.6875 6.5 C-6.62625977 6.85771484 -6.62625977 6.85771484 -7.58398438 7.22265625 C-11.18192299 8.5412725 -14.16520253 9.29329235 -18 9 C-18.66 7.35 -19.32 5.7 -20 4 C-17.79471728 3.32331051 -15.58561391 2.65906502 -13.375 2 C-12.14523437 1.62875 -10.91546875 1.2575 -9.6484375 0.875 C-6.26153174 0.06272281 -3.46145571 -0.17041013 0 0 Z " fill="#19191A" transform="translate(1220,773)"/>
<path d="M0 0 C6.93 0.33 13.86 0.66 21 1 C17.19122714 4.80877286 11.37776214 5.8421269 6.1171875 6.19140625 C3.73710099 6.18801581 1.37590585 6.13648821 -1 6 C-0.67 4.02 -0.34 2.04 0 0 Z " fill="#EAEAEA" transform="translate(997,823)"/>
<path d="M0 0 C3.96 0 7.92 0 12 0 C12 2.31 12 4.62 12 7 C8.04 7 4.08 7 0 7 C0 4.69 0 2.38 0 0 Z " fill="#E3E3E5" transform="translate(916,817)"/>
<path d="M0 0 C0.66 0.33 1.32 0.66 2 1 C0.73798869 6.01936315 -0.85726291 8.19111855 -5 11.25 C-5.886875 11.91515625 -6.77375 12.5803125 -7.6875 13.265625 C-8.450625 13.83796875 -9.21375 14.4103125 -10 15 C-10.66 15.66 -11.32 16.32 -12 17 C-13.05699482 12.15544041 -13.05699482 12.15544041 -12 9 C-8.30941794 5.49826352 -4.27140157 2.74590101 0 0 Z " fill="#151515" transform="translate(677,765)"/>
<path d="M0 0 C0.33 0.99 0.66 1.98 1 3 C-3.29 7.29 -7.58 11.58 -12 16 C-12.66 15.67 -13.32 15.34 -14 15 C-11.13698005 8.69571469 -6.27444079 3.04215311 0 0 Z " fill="#0A0A0A" transform="translate(673,409)"/>
<path d="M0 0 C-0.18359375 1.859375 -0.18359375 1.859375 -1 4 C-3.28515625 5.265625 -3.28515625 5.265625 -6.0625 6.25 C-6.98160156 6.58515625 -7.90070313 6.9203125 -8.84765625 7.265625 C-9.91306641 7.62914062 -9.91306641 7.62914062 -11 8 C-11.103125 7.360625 -11.20625 6.72125 -11.3125 6.0625 C-11.539375 5.381875 -11.76625 4.70125 -12 4 C-12.99 3.67 -13.98 3.34 -15 3 C-14.16855469 2.69255859 -14.16855469 2.69255859 -13.3203125 2.37890625 C-12.59585937 2.10949219 -11.87140625 1.84007812 -11.125 1.5625 C-10.40570312 1.29566406 -9.68640625 1.02882813 -8.9453125 0.75390625 C-5.27710123 -0.66770977 -3.95235901 -0.93608503 0 0 Z " fill="#1A1A1A" transform="translate(1049,275)"/>
<path d="M0 0 C-0.33 0.33 -0.66 0.66 -1 1 C10.55 1.33 22.1 1.66 34 2 C34 2.33 34 2.66 34 3 C18.16 3 2.32 3 -14 3 C-4 -2 -4 -2 0 0 Z " fill="#E1E1E1" transform="translate(1036,936)"/>
<path d="M0 0 C2.53367936 3.80051904 4.02491172 7.7618992 5.6875 12 C6.02072266 12.81984375 6.35394531 13.6396875 6.69726562 14.484375 C7.00728516 15.27328125 7.31730469 16.0621875 7.63671875 16.875 C7.92248779 17.59429688 8.20825684 18.31359375 8.50268555 19.0546875 C9 21 9 21 8 24 C6.25814785 21.14407892 4.56302887 18.26300696 2.875 15.375 C2.38128906 14.56675781 1.88757813 13.75851562 1.37890625 12.92578125 C-2.15562121 6.80258579 -2.15562121 6.80258579 -1.3046875 2.4140625 C-0.87414062 1.61742187 -0.44359375 0.82078125 0 0 Z " fill="#D8D8DA" transform="translate(934,757)"/>
<path d="M0 0 C12.87 0 25.74 0 39 0 C39.495 1.485 39.495 1.485 40 3 C36.21812119 4.83691257 34.05431692 5.15837626 30 4 C31.32 3.34 32.64 2.68 34 2 C22.78 1.67 11.56 1.34 0 1 C0 0.67 0 0.34 0 0 Z " fill="#4D4D4D" transform="translate(1228,759)"/>
<path d="M0 0 C2.23637531 2.23637531 2.83847971 4.09619927 4 7 C4.66 7.66 5.32 8.32 6 9 C4.68 10.65 3.36 12.3 2 14 C-2.23632385 7.10284464 -2.23632385 7.10284464 -1.25 2.5 C-0.8375 1.675 -0.425 0.85 0 0 Z " fill="#E1E0E1" transform="translate(1110,774)"/>
<path d="M0 0 C0.66 0.33 1.32 0.66 2 1 C2.33 1.99 2.66 2.98 3 4 C-2.23420787 7.27137992 -5.16605611 7.10643764 -11 6 C-7.57874946 3.12614955 -4.16111563 1.54115394 0 0 Z " fill="#1E1E1E" transform="translate(375,719)"/>
<path d="M0 0 C0.66 0.33 1.32 0.66 2 1 C1.62005832 3.75457718 1.1926367 4.82020574 -0.875 6.75 C-3 8 -3 8 -6 8 C-6 6.33333333 -6 4.66666667 -6 3 C-4.03533587 1.93224776 -2.03144641 0.93446535 0 0 Z " fill="#202020" transform="translate(348,731)"/>
<path d="M0 0 C0.66 0.66 1.32 1.32 2 2 C-0.97 5.63 -3.94 9.26 -7 13 C-7.33 12.34 -7.66 11.68 -8 11 C-8.66 10.67 -9.32 10.34 -10 10 C-9.36191406 9.44570313 -8.72382812 8.89140625 -8.06640625 8.3203125 C-7.24011719 7.59585937 -6.41382813 6.87140625 -5.5625 6.125 C-4.73878906 5.40570313 -3.91507813 4.68640625 -3.06640625 3.9453125 C-0.94017845 2.16761255 -0.94017845 2.16761255 0 0 Z " fill="#323232" transform="translate(726,452)"/>
<path d="M0 0 C0.66 0.33 1.32 0.66 2 1 C1.4225 1.55429687 0.845 2.10859375 0.25 2.6796875 C-0.4925 3.40414062 -1.235 4.12859375 -2 4.875 C-2.7425 5.59429688 -3.485 6.31359375 -4.25 7.0546875 C-6.22293325 8.81170957 -6.22293325 8.81170957 -6 11 C-5.34 11.66 -4.68 12.32 -4 13 C-6.31 12.67 -8.62 12.34 -11 12 C-9.85996765 8.57990294 -8.77829802 7.71130558 -6.0625 5.4375 C-3.96656037 3.66869432 -1.94005112 1.94005112 0 0 Z " fill="#E3E3E3" transform="translate(702,776)"/>
<path d="M0 0 C1.98 0 3.96 0 6 0 C6.33 1.32 6.66 2.64 7 4 C4.36 4.66 1.72 5.32 -1 6 C-0.67 4.02 -0.34 2.04 0 0 Z " fill="#131313" transform="translate(1214,773)"/>
<path d="M0 0 C0.66 0.33 1.32 0.66 2 1 C1.57589844 1.4125 1.15179687 1.825 0.71484375 2.25 C-3.75238723 6.64850435 -7.9278528 11.23472137 -12 16 C-12.66 15.34 -13.32 14.68 -14 14 C-9.38 9.38 -4.76 4.76 0 0 Z " fill="#212121" transform="translate(608,468)"/>
<path d="M0 0 C0 4 0 8 0 12 C-0.33 12 -0.66 12 -1 12 C-1.33 10.02 -1.66 8.04 -2 6 C-2.99 6.99 -3.98 7.98 -5 9 C-5.99 8.67 -6.98 8.34 -8 8 C-5.36 5.36 -2.72 2.72 0 0 Z " fill="#424242" transform="translate(713,369)"/>
<path d="M0 0 C-2.34914492 2.34914492 -3.95679446 2.73140357 -7.125 3.625 C-8.49011719 4.01558594 -8.49011719 4.01558594 -9.8828125 4.4140625 C-10.58148437 4.60742188 -11.28015625 4.80078125 -12 5 C-12 4.34 -12 3.68 -12 3 C-12.66 2.67 -13.32 2.34 -14 2 C-9.15758367 0.66416101 -5.06562383 -0.25328119 0 0 Z " fill="#2E2E2E" transform="translate(1260,763)"/>
<path d="M0 0 C0.99 0.33 1.98 0.66 3 1 C0.03 3.97 -2.94 6.94 -6 10 C-6.66 9.34 -7.32 8.68 -8 8 C-5.36 5.36 -2.72 2.72 0 0 Z " fill="#2B2B2B" transform="translate(704,378)"/>
<path d="M0 0 C0.66 0.66 1.32 1.32 2 2 C1.01 4.31 0.02 6.62 -1 9 C-2.65 9 -4.3 9 -6 9 C-4.02 6.03 -2.04 3.06 0 0 Z " fill="#DCDBDC" transform="translate(695,492)"/>
<path d="M0 0 C0.66 0.99 1.32 1.98 2 3 C-0.64 5.97 -3.28 8.94 -6 12 C-6 8.36804504 -5.04546845 7.25286089 -3 4.3125 C-2.443125 3.50425781 -1.88625 2.69601562 -1.3125 1.86328125 C-0.879375 1.24839844 -0.44625 0.63351562 0 0 Z " fill="#1E1E1E" transform="translate(730,769)"/>
<path d="M0 0 C2.16321167 3.24481751 3.6314591 6.35055759 5 10 C4.67 10.99 4.34 11.98 4 13 C3.13083113 11.59248779 2.28014851 10.1735479 1.4375 8.75 C0.72400391 7.56664062 0.72400391 7.56664062 -0.00390625 6.359375 C-1.13022151 3.69155375 -1.0169313 2.65498232 0 0 Z " fill="#B9B8BA" transform="translate(938,768)"/>
<path d="M0 0 C0.66 0.66 1.32 1.32 2 2 C-1.78187881 3.83691257 -3.94568308 4.15837626 -8 3 C-5.38326241 1.59817629 -2.9628331 0.39504441 0 0 Z " fill="#606060" transform="translate(1266,760)"/>
</svg>
