<svg width="262" height="60" viewBox="0 0 262 60" fill="none" xmlns="http://www.w3.org/2000/svg">
<g clip-path="url(#clip0_1_2)">
<mask id="mask0_1_2" style="mask-type:luminance" maskUnits="userSpaceOnUse" x="0" y="0" width="262" height="60">
<path d="M261.783 0H0.21875V60H261.783V0Z" fill="white"/>
</mask>
<g mask="url(#mask0_1_2)">
<path d="M68.4799 40.1831C72.0011 40.1831 73.7059 42.2713 73.7059 45.1511C73.7059 48.0309 72.0011 50.1191 68.4799 50.1191H65V40.1802H68.4799V40.1831ZM68.4651 41.6599H66.6188V48.6453H68.4651C70.8224 48.6453 72.0572 47.3811 72.0572 45.1541C72.0572 42.927 70.8224 41.6629 68.4651 41.6629V41.6599Z" fill="#333333"/>
<path d="M73.9879 50.1221L78.1909 40.1831H79.9669L84.1549 50.1221H82.4509L81.5699 47.9777H76.5879L75.7069 50.1221H73.9879ZM77.1399 46.56H80.9999L79.2549 42.3156C79.1989 42.1591 79.1419 42.0026 79.0719 41.7633C79.0009 42.0055 78.9449 42.1621 78.8859 42.3156L77.1399 46.56Z" fill="#333333"/>
<path d="M91.4809 40.1831V41.6747H88.2019V50.1221H86.5829V41.6747H83.2889V40.1831H91.4809Z" fill="#333333"/>
<path d="M90.6129 50.1221L94.8159 40.1831H96.5919L100.78 50.1221H99.0759L98.1949 47.9777H93.2129L92.3319 50.1221H90.6129ZM93.7649 46.56H97.6249L95.8799 42.3156C95.8239 42.1591 95.7669 42.0026 95.6969 41.7633C95.6259 42.0055 95.5699 42.1621 95.5109 42.3156L93.7649 46.56Z" fill="#333333"/>
<path d="M108.48 40.1831C112.001 40.1831 113.706 42.2713 113.706 45.1511C113.706 48.0309 112.001 50.1191 108.48 50.1191H105V40.1802H108.48V40.1831ZM108.465 41.6599H106.619V48.6453H108.465C110.823 48.6453 112.057 47.3811 112.057 45.1541C112.057 42.927 110.823 41.6629 108.465 41.6629V41.6599Z" fill="#333333"/>
<path d="M115.52 50.1221V40.1831H119.496C121.357 40.1831 123.315 40.9215 123.315 43.2933C123.315 45.0684 122.208 45.9191 120.902 46.2322L124.083 50.1221H122.14L119.159 46.4035H117.141V50.1221H115.523H115.52ZM117.138 44.968H119.567C120.63 44.968 121.667 44.584 121.667 43.3199C121.667 42.0557 120.63 41.6599 119.567 41.6599H117.138V44.968Z" fill="#333333"/>
<path d="M127.092 40.1831V50.1221H125.473V40.1831H127.092Z" fill="#333333"/>
<path d="M132.428 50.1221L128.426 40.1831H130.172L133.267 48.2465L136.362 40.1831H138.108L134.106 50.1221H132.431H132.428Z" fill="#333333"/>
<path d="M146.286 40.1831V41.6599H141.06V44.3714H145.861V45.8482H141.06V48.6453H146.372V50.1221H139.442V40.1831H146.286Z" fill="#333333"/>
<path d="M148.246 50.1221V40.1831H149.765L155.117 47.452C155.103 47.1123 155.103 46.7284 155.103 46.3592V40.1831H156.721V50.1221H155.203L149.85 42.8532C149.865 43.1929 149.865 43.5768 149.865 43.9313V50.1221H148.246Z" fill="#333333"/>
<path d="M169.246 40.1831V41.6747H165.967V50.1221H164.349V41.6747H161.055V40.1831H169.246Z" fill="#333333"/>
<path d="M170.652 50.1221V40.1831H174.629C176.49 40.1831 178.448 40.9215 178.448 43.2933C178.448 45.0684 177.34 45.9191 176.035 46.2322L179.216 50.1221H177.27L174.289 46.4035H172.271V50.1221H170.652ZM172.271 44.968H174.699C175.763 44.968 176.8 44.584 176.8 43.3199C176.8 42.0557 175.763 41.6599 174.699 41.6599H172.271V44.968Z" fill="#333333"/>
<path d="M188.908 40.1831V46.4448C188.908 49.3276 186.879 50.3052 184.678 50.3052C182.477 50.3052 180.418 49.3246 180.418 46.4448V40.1831H182.037V46.3592C182.037 48.1609 183.13 48.8018 184.678 48.8018C186.226 48.8018 187.289 48.1638 187.289 46.3592V40.1831H188.908Z" fill="#333333"/>
<path d="M194.192 40C195.329 40 196.493 40.2836 197.303 40.7532V42.3009C196.493 41.7604 195.385 41.465 194.322 41.4768C193.114 41.4768 192.349 41.8313 192.349 42.6849C192.349 44.8292 198.029 43.9638 198.029 47.5111C198.029 49.5993 196.254 50.3229 194.266 50.3082C192.931 50.3082 191.725 49.9951 190.745 49.4428V47.8537C191.823 48.5508 193.016 48.8343 194.154 48.8343C195.433 48.8343 196.384 48.536 196.384 47.5997C196.384 45.2988 190.703 46.2381 190.703 42.7173C190.703 40.8861 192.322 40.0059 194.195 40.0059L194.192 40Z" fill="#333333"/>
<path d="M206.727 40.1831V41.6747H203.448V50.1221H201.829V41.6747H198.535V40.1831H206.727Z" fill="#333333"/>
<path d="M78.2617 8.56848C87.418 8.56848 91.9961 14.9926 91.9961 22.0075C91.9961 29.0224 87.418 35.4465 78.2617 35.4465C69.1055 35.4465 64.5273 29.0224 64.5273 22.0075C64.5273 14.9926 69.1055 8.56848 78.2617 8.56848ZM78.2617 13.6989C72.8713 13.6989 70.1776 17.4648 70.1776 22.0045C70.1776 26.5443 72.8713 30.3101 78.2617 30.3101C83.6521 30.3101 86.3104 26.5443 86.3104 22.0045C86.3104 17.4648 83.6166 13.6989 78.2617 13.6989Z" fill="#27A102"/>
<path d="M95.3203 34.9296V17.2078H99.86V19.2754C100.782 18.1678 102.814 16.691 105.507 16.691C108.201 16.691 109.899 17.7986 110.933 19.3108C112.41 17.8724 114.404 16.691 116.84 16.691C121.823 16.691 123.448 20.5661 123.448 23.7058V34.9296H118.353V24.0396C118.353 22.1936 117.207 21.1243 115.585 21.1243C114.182 21.1243 112.927 21.9366 112.079 22.8965C112.118 23.1535 112.118 23.4134 112.118 23.7088V34.9326H107.023V24.0425C107.023 22.1965 105.88 21.1273 104.255 21.1273C102.631 21.1273 101.301 22.1611 100.454 23.2687V34.9355H95.3233L95.3203 34.9296Z" fill="#27A102"/>
<path d="M138.069 16.691C142.721 16.691 145.267 19.8661 145.267 23.9628V34.9267H140.137V24.6274C140.137 22.2261 138.698 21.1214 136.704 21.1214C134.897 21.1214 133.494 22.3028 132.755 23.3721V34.9267H127.625V17.2049H132.165V19.4555C133.532 17.8695 135.523 16.688 138.072 16.688L138.069 16.691Z" fill="#27A102"/>
<path d="M151.989 14.2542C150.403 14.2542 149 13.3681 149 11.336C149 9.30393 150.403 8.45624 151.989 8.45624C153.576 8.45624 155.017 9.34233 155.017 11.336C155.017 13.3297 153.614 14.2542 151.989 14.2542ZM149.443 34.9267V17.2049H154.574V34.9267H149.443Z" fill="#27A102"/>
<path d="M172.551 8.51236C175.135 8.51236 177.72 9.06764 179.935 10.1752V15.4534C178.272 14.1597 175.874 13.4242 173.475 13.4242C168.936 13.4242 164.358 16.0087 164.358 22.2467C164.319 27.9325 168.971 30.443 173.475 30.443C176.134 30.443 178.57 29.7046 180.121 28.3017V33.7275C177.906 34.7996 175.36 35.3904 172.628 35.3904C165.725 35.3904 158.672 31.2553 158.672 22.2467C158.707 12.7951 165.648 8.51236 172.554 8.51236H172.551Z" fill="#333333"/>
<path d="M188.795 9.0322V18.7792C190.089 17.5623 191.897 16.6378 194.112 16.6378C198.764 16.6378 201.31 19.8129 201.31 23.9096V34.8735H196.18V24.5742C196.18 22.1729 194.741 21.0682 192.747 21.0682C190.94 21.0682 189.537 22.2497 188.798 23.3189V34.8735H183.668V9.0322H188.798H188.795Z" fill="#333333"/>
<path d="M213.569 16.6348C220.915 16.6348 223.278 22.4299 222.096 27.6725H209.617C210.208 30.257 212.94 31.3291 215.855 31.3291C217.887 31.3291 219.695 30.9215 221.207 30.2599V34.2828C219.547 34.9857 217.367 35.3904 214.709 35.3904C209.097 35.3904 204.445 32.1798 204.445 26.0126C204.445 19.3315 209.576 16.6348 213.563 16.6348H213.569ZM213.755 20.5484C211.578 20.5484 209.658 21.913 209.585 24.3527H217.486C217.669 23.1328 216.969 20.5484 213.758 20.5484H213.755Z" fill="#333333"/>
<path d="M234.648 16.5994C236.606 16.5994 238.523 17.0424 240.112 17.8901V22.3944C238.856 21.5822 237.084 21.0653 235.386 21.0653C232.58 21.0653 229.886 22.4298 229.886 26.0126C229.886 29.4093 232.545 30.9599 235.312 30.9599C237.194 30.9599 239.004 30.443 240.295 29.6692V34.2089C238.561 34.9473 236.567 35.3904 234.314 35.3904C229.479 35.3904 224.641 32.5844 224.641 26.2725C224.641 19.4792 229.736 16.5994 234.645 16.5994H234.648Z" fill="#333333"/>
<path d="M256.023 34.8735L250.928 27.8586H248.861V34.8735H243.73V9.0322H248.861V23.7619H251.002L255.507 17.1547H261.266L255.176 25.9033L261.783 34.8735H256.023Z" fill="#333333"/>
<path d="M44.7624 26.5353C43.9354 37.511 38.7961 46.0263 29.5128 52.2466C28.2428 53.1268 26.8723 54.007 25.4073 54.7867C25.0174 55.0821 24.722 55.0821 24.2347 54.8842C14.6531 49.801 7.81253 42.4671 5.36692 31.6155C4.38927 27.6074 4.48674 23.5019 4.48674 19.3964C4.48674 16.9507 4.58421 14.4106 4.2918 11.8676C4.2918 11.2798 4.38927 10.9874 5.07451 10.8899C11.6257 9.52237 18.0764 7.95694 24.1372 5.12146C24.5301 4.92652 24.8225 4.92652 25.1149 5.12146C31.0783 7.85947 37.2366 9.42194 43.5928 10.695C44.6679 10.8899 44.9603 11.2798 44.9603 12.3579C44.916 14.2689 44.9131 16.2005 44.9131 18.1322C46.1299 17.4499 47.5093 16.7115 49.0304 15.9583C49.0304 13.4094 49.0304 10.8456 49.0304 8.21981C49.0304 7.30124 48.8266 6.99406 47.908 6.89364C40.1459 5.5645 32.4871 3.72735 25.3394 0.15346C24.9318 -0.0503396 24.6246 -0.0503396 24.217 0.15346C16.9658 4.03157 9.10326 5.7683 1.13733 7.09744C0.322127 7.19786 0.21875 7.40461 0.21875 8.11939V23.2331C0.21875 30.0737 1.64831 36.5067 5.0184 42.5321C9.41044 50.4981 16.3544 55.7053 24.217 59.8906C24.6246 60.0944 24.8284 59.994 25.2389 59.7902C27.7909 58.464 30.3458 56.9311 32.6939 55.2977C40.967 49.4761 46.1742 41.7169 48.2152 31.8105C48.803 28.8745 48.93 25.9002 48.9743 22.9082C47.4354 24.1517 46.0207 25.3745 44.7654 26.5382L44.7624 26.5353Z" fill="#27A102"/>
<path d="M26.1006 32.487V24.0868C26.1006 23.2716 25.4389 22.6071 24.6206 22.6071C23.8023 22.6071 23.1406 23.2687 23.1406 24.0868V35.7478C23.953 34.8056 24.9426 33.7009 26.0976 32.484L26.1006 32.487Z" fill="#333333"/>
<path d="M29.0573 24.0868V29.5097C29.979 28.6207 30.9627 27.7021 32.0143 26.7628V24.0868C32.0143 23.437 31.9286 22.7931 31.7632 22.1729C31.5505 21.3813 30.7382 20.9205 29.9524 21.1273C29.1637 21.34 28.694 22.1493 28.9067 22.9379C29.0071 23.31 29.0573 23.697 29.0573 24.0868Z" fill="#333333"/>
<path d="M19.3714 15.1698C20.9575 14.2306 22.7739 13.7344 24.6259 13.7344C30.3323 13.7344 34.9754 18.3775 34.9754 24.0839V24.2316C35.8703 23.4961 36.8037 22.7577 37.7725 22.0223C36.7771 15.6601 31.2627 10.7807 24.6288 10.7807C22.2482 10.7807 19.9119 11.4187 17.8709 12.6268C17.168 13.0432 16.9346 13.95 17.3511 14.6529C17.7675 15.3559 18.6743 15.5892 19.3773 15.1728L19.3714 15.1698Z" fill="#333333"/>
<path d="M50.1186 19.2813L49.9562 18.6433C49.9119 18.4631 49.714 18.3657 49.5427 18.4395C46.462 19.7923 43.2869 21.653 42.835 21.9455C41.0953 23.0324 39.6037 24.1046 38.4193 25.0261C30.8314 30.6764 25.2934 36.6516 22.4874 39.9951L14.173 33.4823C13.9633 33.3169 13.6679 33.3199 13.4612 33.4882L10.475 35.8954C10.2122 36.1081 10.1885 36.5009 10.4248 36.7431L23.6512 50.194C24.2714 50.8231 25.3259 50.634 25.6921 49.8307C28.8318 42.9576 38.4872 26.8839 49.9916 19.6091C50.098 19.5382 50.1482 19.4083 50.1157 19.2842L50.1186 19.2813Z" fill="#27A102"/>
<path d="M50.1186 19.2813L49.9562 18.6433C49.9119 18.4631 49.714 18.3657 49.5427 18.4395C46.462 19.7923 43.2869 21.653 42.835 21.9455C41.0953 23.0324 39.6037 24.1046 38.4193 25.0261C30.8314 30.6764 25.2934 36.6516 22.4874 39.9951L14.173 33.4823C13.9633 33.3169 13.6679 33.3199 13.4612 33.4882L10.475 35.8954C10.2122 36.1081 10.1885 36.5009 10.4248 36.7431L23.6512 50.194C24.2714 50.8231 25.3259 50.634 25.6921 49.8307C28.8318 42.9576 38.4872 26.8839 49.9916 19.6091C50.098 19.5382 50.1482 19.4083 50.1157 19.2842L50.1186 19.2813Z" fill="url(#paint0_linear_1_2)" fill-opacity="0.2"/>
<path d="M22.4913 39.9951L14.1769 33.4823C13.9672 33.3169 13.6718 33.3199 13.4651 33.4882L10.4789 35.8954C10.2161 36.1081 10.1924 36.5009 10.4287 36.7431L23.6551 50.194C24.2753 50.8231 25.3298 50.634 25.696 49.8307C26.4846 48.1057 28.9805 43.6576 30.5164 41.0613C26.972 42.2428 24.0184 41.0613 22.4913 40.001V39.9951Z" fill="#27A102"/>
<path d="M20.193 34.6077V27.0405C20.193 27.0198 20.1871 26.9991 20.1871 26.9784V24.0868C20.1871 21.6412 22.1778 19.6505 24.6234 19.6505C25.0162 19.6505 25.4032 19.7007 25.7724 19.8011C26.561 20.0079 27.3703 19.5442 27.5829 18.7555C27.7926 17.9669 27.326 17.1576 26.5374 16.945C25.9171 16.7796 25.2732 16.6939 24.6234 16.6939C20.5474 16.6939 17.2305 20.0108 17.2305 24.0868V32.2861L20.193 34.6077Z" fill="#333333"/>
<path d="M11.3321 31.7072L13.524 29.9409C13.7308 29.7726 14.0262 29.7726 14.2359 29.935L14.2891 29.9764V26.4468C14.2891 26.4025 14.2802 26.3641 14.2773 26.3227V24.0839C14.2773 22.2349 14.7736 20.4184 15.713 18.8294C16.1295 18.1264 15.8961 17.2197 15.193 16.8032C14.49 16.3897 13.5831 16.6201 13.1666 17.323C11.9584 19.364 11.3203 21.7033 11.3203 24.0809V29.9941C11.3203 30.0384 11.3292 30.0768 11.3321 30.1181V31.7013V31.7072Z" fill="#333333"/>
</g>
</g>
<defs>
<linearGradient id="paint0_linear_1_2" x1="49.2634" y1="18.913" x2="26.2188" y2="41.583" gradientUnits="userSpaceOnUse">
<stop stop-opacity="0"/>
<stop offset="1"/>
</linearGradient>
<clipPath id="clip0_1_2">
<rect width="262" height="60" fill="white"/>
</clipPath>
</defs>
</svg>
